<?xml version="1.0" encoding="utf-8"?>

<!-- Uploaded to: SVG Repo, www.svgrepo.com, Generator: SVG Repo Mixer Tools -->
<svg fill="#000000" height="800px" width="800px" version="1.1" id="Icons" xmlns="http://www.w3.org/2000/svg" xmlns:xlink="http://www.w3.org/1999/xlink" 
	 viewBox="0 0 32 32" xml:space="preserve">
<g>
	<path d="M29,29H3c-0.3,0-0.7-0.2-0.9-0.5s-0.2-0.7,0-1l2-4C4.3,23.2,4.6,23,5,23h22c0.4,0,0.7,0.2,0.9,0.6l2,4c0.2,0.3,0.1,0.7,0,1
		S29.3,29,29,29z"/>
</g>
<g>
	<path d="M6,22c-0.6,0-1-0.4-1-1V10c0-0.6,0.4-1,1-1h8c0.6,0,1,0.4,1,1s-0.4,1-1,1H7v10C7,21.6,6.6,22,6,22z"/>
</g>
<g>
	<path d="M26,22c-0.6,0-1-0.4-1-1V11h-7c-0.6,0-1-0.4-1-1s0.4-1,1-1h8c0.6,0,1,0.4,1,1v11C27,21.6,26.6,22,26,22z"/>
</g>
<g>
	<path d="M16,22c-0.6,0-1-0.4-1-1v-3c0-0.6,0.4-1,1-1s1,0.4,1,1v3C17,21.6,16.6,22,16,22z"/>
</g>
<path d="M21.9,17.5L19,12.7V6c0-0.2-0.1-0.4-0.2-0.6l-2-3c-0.4-0.6-1.3-0.6-1.7,0l-2,3C13.1,5.6,13,5.8,13,6v6.7l-2.9,4.8
	c-0.2,0.3-0.2,0.7,0,1c0.2,0.3,0.5,0.5,0.9,0.5h2v-1c0-1.7,1.3-3,3-3s3,1.3,3,3v1h2c0.4,0,0.7-0.2,0.9-0.5
	C22,18.2,22,17.8,21.9,17.5z"/>
</svg>